<svg width="202" height="219" viewBox="0 0 202 219" fill="none" xmlns="http://www.w3.org/2000/svg">
<path d="M189.075 58.8138C188.839 58.2411 188.597 57.6704 188.348 57.1018C183.449 45.8792 176.267 35.682 167.213 27.0926C158.159 18.5032 147.411 11.6897 135.582 7.04114C123.752 2.39258 111.074 0 98.2701 0C85.4662 0 72.7877 2.39258 60.9585 7.04115C49.1292 11.6897 38.3809 18.5032 29.3272 27.0926C20.2735 35.682 13.0917 45.8792 8.19185 57.1018C3.8193 67.1167 1.34043 77.7732 0.857543 88.5834C0.260609 93.4876 -0.0246784 98.5786 0.0016709 103.856C0.0917342 121.896 3.80077 137.718 11.1288 151.321C18.6768 164.924 28.8494 175.433 41.6466 182.85C54.6626 190.045 69.2006 193.602 85.2604 193.522C107.7 193.41 126.146 186.608 140.599 173.115C155.052 159.623 163.431 141.431 165.737 118.539H116.74V93.9597H197.625L197.74 117.059C196.075 135.988 190.221 153.397 180.181 169.288C170.139 184.958 156.891 197.454 140.437 206.777C129.813 212.654 118.399 216.655 106.196 218.779L201.24 218.305L200.687 107.457L200.686 107.457C200.522 89.9635 196.356 73.4509 189.075 58.8138Z" fill="#A6D6D5"/>
</svg>
