<svg width="547" height="246" viewBox="0 0 547 246" fill="none" xmlns="http://www.w3.org/2000/svg">
<path fill-rule="evenodd" clip-rule="evenodd" d="M188.348 57.1018C188.597 57.6704 188.839 58.2411 189.075 58.8138C196.356 73.4509 200.522 89.9635 200.686 107.457L200.687 107.457L201.24 218.305L106.196 218.779C118.399 216.655 129.813 212.654 140.437 206.777C156.891 197.454 170.139 184.958 180.181 169.288C190.221 153.397 196.075 135.988 197.74 117.059L197.625 93.9597H116.74V118.539H165.737C163.431 141.431 155.052 159.623 140.599 173.115C126.146 186.608 107.7 193.41 85.2604 193.522C69.2006 193.602 54.6626 190.045 41.6466 182.849C28.8494 175.433 18.6768 164.924 11.1288 151.321C3.80077 137.718 0.0917358 121.896 0.00167076 103.856C-0.0246774 98.5786 0.260609 93.4876 0.857544 88.5834C1.34043 77.7733 3.81931 67.1167 8.19185 57.1018C13.0917 45.8792 20.2735 35.6821 29.3272 27.0926C38.3809 18.5032 49.1292 11.6897 60.9585 7.04114C72.7877 2.39258 85.4662 0 98.2701 0C111.074 0 123.752 2.39258 135.582 7.04114C147.411 11.6897 158.159 18.5032 167.213 27.0926C176.267 35.682 183.449 45.8792 188.348 57.1018ZM264.3 143.6C259.2 140.8 253.45 139.4 247.05 139.4C240.75 139.4 235 140.8 229.8 143.6C224.7 146.4 220.6 150.8 217.5 156.8C214.5 162.8 213 170.6 213 180.2C213 189.8 214.5 197.6 217.5 203.6C220.6 209.5 224.7 213.85 229.8 216.65C235 219.45 240.75 220.85 247.05 220.85C253.45 220.85 259.2 219.45 264.3 216.65C269.4 213.85 273.45 209.5 276.45 203.6C279.55 197.6 281.1 189.8 281.1 180.2C281.1 170.6 279.55 162.8 276.45 156.8C273.45 150.8 269.4 146.4 264.3 143.6ZM232.95 151.25C236.65 145.35 241.35 142.4 247.05 142.4C252.75 142.4 257.4 145.35 261 151.25C264.7 157.15 266.55 166.8 266.55 180.2C266.55 193.6 264.7 203.25 261 209.15C257.4 214.95 252.75 217.85 247.05 217.85C241.35 217.85 236.65 214.95 232.95 209.15C229.35 203.25 227.55 193.6 227.55 180.2C227.55 166.8 229.35 157.15 232.95 151.25ZM329.528 141.35C326.728 140.05 323.328 139.4 319.328 139.4C315.428 139.4 311.778 140.1 308.378 141.5C304.978 142.8 302.228 144.9 300.128 147.8C298.128 150.6 297.128 154.25 297.128 158.75C297.128 162.85 298.078 166.35 299.978 169.25C301.978 172.15 304.528 174.75 307.628 177.05C310.828 179.35 314.228 181.65 317.828 183.95C322.728 187.05 326.778 190 329.978 192.8C333.178 195.6 334.778 199.2 334.778 203.6C334.778 207.1 334.078 209.9 332.678 212C331.278 214.1 329.528 215.6 327.428 216.5C325.428 217.4 323.428 217.85 321.428 217.85C316.428 217.85 312.528 216.7 309.728 214.4C306.928 212 304.878 208.7 303.578 204.5C302.278 200.3 301.278 195.4 300.578 189.8H297.128C297.128 197.4 297.078 203.5 296.978 208.1C296.878 212.7 296.728 216.6 296.528 219.8H299.978C300.378 217.3 300.978 215.65 301.778 214.85C302.578 213.95 303.478 213.9 304.478 214.7C305.478 215.5 306.478 216.25 307.478 216.95C308.578 217.65 309.628 218.25 310.628 218.75C312.428 219.45 314.278 219.95 316.178 220.25C318.178 220.65 320.278 220.85 322.478 220.85C327.078 220.85 331.278 220.05 335.078 218.45C338.978 216.85 342.128 214.5 344.528 211.4C346.928 208.3 348.128 204.45 348.128 199.85C348.128 195.75 347.178 192.2 345.278 189.2C343.478 186.2 341.028 183.45 337.928 180.95C334.828 178.45 331.378 176 327.578 173.6C324.178 171.4 321.028 169.4 318.128 167.6C315.228 165.7 312.878 163.7 311.078 161.6C309.278 159.4 308.378 156.8 308.378 153.8C308.378 150 309.528 147.15 311.828 145.25C314.228 143.25 317.178 142.25 320.678 142.25C325.178 142.25 328.828 143.4 331.628 145.7C334.428 147.9 336.528 150.75 337.928 154.25C339.428 157.75 340.478 161.35 341.078 165.05H344.528C344.528 158.55 344.578 153.4 344.678 149.6C344.778 145.7 344.928 142.35 345.128 139.55H341.678C340.978 145.85 338.978 147.65 335.678 144.95C334.378 143.85 332.328 142.65 329.528 141.35ZM396.618 141.35C393.818 140.05 390.418 139.4 386.418 139.4C382.518 139.4 378.868 140.1 375.468 141.5C372.068 142.8 369.318 144.9 367.218 147.8C365.218 150.6 364.218 154.25 364.218 158.75C364.218 162.85 365.168 166.35 367.068 169.25C369.068 172.15 371.618 174.75 374.718 177.05C377.918 179.35 381.318 181.65 384.918 183.95C389.818 187.05 393.868 190 397.068 192.8C400.268 195.6 401.868 199.2 401.868 203.6C401.868 207.1 401.168 209.9 399.768 212C398.368 214.1 396.618 215.6 394.518 216.5C392.518 217.4 390.518 217.85 388.518 217.85C383.518 217.85 379.618 216.7 376.818 214.4C374.018 212 371.968 208.7 370.668 204.5C369.368 200.3 368.368 195.4 367.668 189.8H364.218C364.218 197.4 364.168 203.5 364.068 208.1C363.968 212.7 363.818 216.6 363.618 219.8H367.068C367.468 217.3 368.068 215.65 368.868 214.85C369.668 213.95 370.568 213.9 371.568 214.7C372.568 215.5 373.568 216.25 374.568 216.95C375.668 217.65 376.718 218.25 377.718 218.75C379.518 219.45 381.368 219.95 383.268 220.25C385.268 220.65 387.368 220.85 389.568 220.85C394.168 220.85 398.368 220.05 402.168 218.45C406.068 216.85 409.218 214.5 411.618 211.4C414.018 208.3 415.218 204.45 415.218 199.85C415.218 195.75 414.268 192.2 412.368 189.2C410.568 186.2 408.118 183.45 405.018 180.95C401.918 178.45 398.468 176 394.668 173.6C391.268 171.4 388.118 169.4 385.218 167.6C382.318 165.7 379.968 163.7 378.168 161.6C376.368 159.4 375.468 156.8 375.468 153.8C375.468 150 376.618 147.15 378.918 145.25C381.318 143.25 384.268 142.25 387.768 142.25C392.268 142.25 395.918 143.4 398.718 145.7C401.518 147.9 403.618 150.75 405.018 154.25C406.518 157.75 407.568 161.35 408.168 165.05H411.618C411.618 158.55 411.668 153.4 411.768 149.6C411.868 145.7 412.018 142.35 412.218 139.55H408.768C408.068 145.85 406.068 147.65 402.768 144.95C401.468 143.85 399.418 142.65 396.618 141.35ZM450.507 106.85C448.607 104.95 446.357 104 443.757 104C441.157 104 438.907 104.95 437.007 106.85C435.107 108.75 434.157 111 434.157 113.6C434.157 116.2 435.107 118.45 437.007 120.35C438.907 122.25 441.157 123.2 443.757 123.2C446.357 123.2 448.607 122.25 450.507 120.35C452.407 118.45 453.357 116.2 453.357 113.6C453.357 111 452.407 108.75 450.507 106.85ZM451.557 204.8V139.85C449.357 140.55 446.907 141.1 444.207 141.5C441.607 141.8 438.857 141.95 435.957 141.95C432.957 141.95 429.857 141.8 426.657 141.5V144.65C431.057 144.65 434.057 145.75 435.657 147.95C437.257 150.05 438.057 153.35 438.057 157.85V204.8C438.057 209 437.157 211.85 435.357 213.35C433.657 214.85 430.757 215.6 426.657 215.6V218.75C428.357 218.65 430.957 218.55 434.457 218.45C437.957 218.25 441.407 218.15 444.807 218.15C448.307 218.15 451.757 218.25 455.157 218.45C458.657 218.55 461.257 218.65 462.957 218.75V215.6C458.857 215.6 455.907 214.85 454.107 213.35C452.407 211.85 451.557 209 451.557 204.8ZM494.453 155.432V139.85C492.253 140.55 489.803 141.1 487.103 141.5C484.503 141.8 481.753 141.95 478.853 141.95C475.853 141.95 472.753 141.8 469.553 141.5V144.65C473.953 144.65 476.953 145.75 478.553 147.95C480.153 150.05 480.953 153.35 480.953 157.85V233.45C480.953 237.05 480.203 239.5 478.703 240.8C477.203 242.1 474.653 242.75 471.053 242.75V245.9C472.653 245.8 474.953 245.65 477.953 245.45C481.053 245.35 484.153 245.3 487.253 245.3C491.653 245.3 495.803 245.35 499.703 245.45C503.603 245.65 506.653 245.8 508.853 245.9V242.75C504.353 242.75 500.803 242 498.203 240.5C495.703 239.1 494.453 236.25 494.453 231.95V212.669C495.735 214.488 497.485 216.115 499.703 217.55C503.203 219.75 507.303 220.85 512.003 220.85C518.103 220.85 523.303 219.6 527.603 217.1C532.003 214.5 535.553 211.1 538.253 206.9C541.053 202.6 543.103 197.85 544.403 192.65C545.703 187.35 546.353 182 546.353 176.6C546.353 168.5 545.103 161.7 542.603 156.2C540.203 150.7 536.903 146.55 532.703 143.75C528.503 140.85 523.753 139.4 518.453 139.4C511.553 139.4 505.603 141.75 500.603 146.45C498.028 148.919 495.978 151.913 494.453 155.432ZM494.453 162.779V207.794C495.844 210.465 497.794 212.717 500.303 214.55C503.003 216.45 506.353 217.4 510.353 217.4C515.953 217.4 520.303 215.65 523.403 212.15C526.503 208.65 528.653 204 529.853 198.2C531.153 192.3 531.803 185.8 531.803 178.7C531.803 170.7 531.153 164.15 529.853 159.05C528.553 153.95 526.603 150.15 524.003 147.65C521.403 145.15 518.203 143.9 514.403 143.9C509.503 143.9 505.053 145.95 501.053 150.05C498.018 153.084 495.818 157.327 494.453 162.779Z" fill="#A6D6D5"/>
</svg>
